HIERARCHY
ROOT newVegas:Hips
{
	OFFSET 0.000000 96.479958 0.000000
	CHANNELS 6 Xposition Yposition Zposition Xrotation Yrotation Zrotation
	JOINT newVegas:Pelvis
	{
		OFFSET 0.000000 0.000000 0.000000
		CHANNELS 3 Xrotation Yrotation Zrotation
		JOINT newVegas:LeftUpLeg
		{
			OFFSET 18.735201 -5.666702 -4.541200
			CHANNELS 3 Xrotation Yrotation Zrotation
			JOINT newVegas:LeftLeg
			{
				OFFSET -0.021200 -31.938179 0.493100
				CHANNELS 3 Xrotation Yrotation Zrotation
				JOINT newVegas:LeftFoot
				{
					OFFSET 0.021200 -31.938179 -4.336299
					CHANNELS 3 Xrotation Yrotation Zrotation
					JOINT newVegas:LeftToeBase
					{
						OFFSET 0.943001 -26.722000 15.023500
						CHANNELS 3 Xrotation Yrotation Zrotation
						End Site
						{
							OFFSET 0.000000 30.670183 0.000000
						}
					}
				}
				JOINT newVegas:Left_PantLeg
				{
					OFFSET 0.663870 -9.044666 -1.108900
					CHANNELS 3 Xrotation Yrotation Zrotation
					End Site
					{
						OFFSET 1.415995 20.635357 0.000000
					}
				}
			}
		}
		JOINT newVegas:RightUpLeg
		{
			OFFSET -18.735201 -5.666702 -4.541200
			CHANNELS 3 Xrotation Yrotation Zrotation
			JOINT newVegas:RightLeg
			{
				OFFSET 0.018946 -31.938133 0.493100
				CHANNELS 3 Xrotation Yrotation Zrotation
				JOINT newVegas:RightFoot
				{
					OFFSET -0.018946 -31.938126 -4.336299
					CHANNELS 3 Xrotation Yrotation Zrotation
					JOINT newVegas:RightToeBase
					{
						OFFSET -0.943001 -26.722004 15.023500
						CHANNELS 3 Xrotation Yrotation Zrotation
						End Site
						{
							OFFSET 0.000000 30.670187 0.000000
						}
					}
				}
				JOINT newVegas:Right_PantLeg
				{
					OFFSET -0.661674 -9.044716 -1.108900
					CHANNELS 3 Xrotation Yrotation Zrotation
					End Site
					{
						OFFSET -1.415958 20.635269 0.000000
					}
				}
			}
		}
	}
	JOINT newVegas:Spine
	{
		OFFSET 0.000000 10.199997 -0.299500
		CHANNELS 3 Xrotation Yrotation Zrotation
		JOINT newVegas:Spine1
		{
			OFFSET 0.000000 11.900002 -1.516600
			CHANNELS 3 Xrotation Yrotation Zrotation
			JOINT newVegas:Spine2
			{
				OFFSET 0.000000 13.600006 -2.842500
				CHANNELS 3 Xrotation Yrotation Zrotation
				JOINT newVegas:Neck
				{
					OFFSET 0.000000 9.624100 -2.890100
					CHANNELS 3 Xrotation Yrotation Zrotation
					JOINT newVegas:Head
					{
						OFFSET 0.000000 14.068802 -1.351900
						CHANNELS 3 Xrotation Yrotation Zrotation
						JOINT newVegas:Hair_Back
						{
							OFFSET 0.000000 3.231903 -17.524799
							CHANNELS 3 Xrotation Yrotation Zrotation
							End Site
							{
								OFFSET 0.000000 19.849884 0.000000
							}
						}
						JOINT newVegas:Hair_Front
						{
							OFFSET 0.000000 31.260406 4.573800
							CHANNELS 3 Xrotation Yrotation Zrotation
							JOINT newVegas:Hair_Front1
							{
								OFFSET 0.000000 2.284103 11.993300
								CHANNELS 3 Xrotation Yrotation Zrotation
								JOINT newVegas:Hair_Front2
								{
									OFFSET 0.000000 2.284103 11.993300
									CHANNELS 3 Xrotation Yrotation Zrotation
									End Site
									{
										OFFSET 0.000000 12.208862 0.000000
									}
								}
							}
						}
						JOINT newVegas:Jowel
						{
							OFFSET 0.000000 -7.458206 6.864100
							CHANNELS 3 Xrotation Yrotation Zrotation
							End Site
							{
								OFFSET 0.000000 19.849884 0.000000
							}
						}
					}
				}
				JOINT newVegas:LeftShoulder
				{
					OFFSET 15.263000 10.923401 -0.547700
					CHANNELS 3 Xrotation Yrotation Zrotation
					JOINT newVegas:LeftArm
					{
						OFFSET 25.438599 -2.830597 -13.032500
						CHANNELS 3 Xrotation Yrotation Zrotation
						JOINT newVegas:LeftForeArm
						{
							OFFSET 29.960503 0.000000 0.000000
							CHANNELS 3 Xrotation Yrotation Zrotation
							JOINT newVegas:LeftHand
							{
								OFFSET 27.849251 0.000000 0.000000
								CHANNELS 3 Xrotation Yrotation Zrotation
								JOINT newVegas:LeftHandThumb1
								{
									OFFSET 4.487587 -3.305161 6.305391
									CHANNELS 3 Xrotation Yrotation Zrotation
									JOINT newVegas:LeftHandThumb2
									{
										OFFSET 5.480453 -3.164139 3.164143
										CHANNELS 3 Xrotation Yrotation Zrotation
										JOINT newVegas:LeftHandThumb3
										{
											OFFSET 5.159721 -2.978973 2.978967
											CHANNELS 3 Xrotation Yrotation Zrotation
											End Site
											{
												OFFSET 2.494507 5.926697 1.738678
											}
										}
									}
								}
								JOINT newVegas:LeftHandIndex1
								{
									OFFSET 18.578728 -0.527832 5.208049
									CHANNELS 3 Xrotation Yrotation Zrotation
									JOINT newVegas:LeftHandIndex2
									{
										OFFSET 3.192009 0.000000 0.000000
										CHANNELS 3 Xrotation Yrotation Zrotation
										JOINT newVegas:LeftHandIndex3
										{
											OFFSET 3.835129 0.000000 0.000000
											CHANNELS 3 Xrotation Yrotation Zrotation
											End Site
											{
												OFFSET -0.034599 3.816971 0.371180
											}
										}
									}
								}
								JOINT newVegas:LeftHandMiddle1
								{
									OFFSET 18.476105 0.000000 0.000000
									CHANNELS 3 Xrotation Yrotation Zrotation
									JOINT newVegas:LeftHandMiddle2
									{
										OFFSET 3.324875 0.000000 0.000000
										CHANNELS 3 Xrotation Yrotation Zrotation
										JOINT newVegas:LeftHandMiddle3
										{
											OFFSET 4.596550 0.000000 0.000000
											CHANNELS 3 Xrotation Yrotation Zrotation
											End Site
											{
												OFFSET 0.057701 4.578827 0.399218
											}
										}
									}
								}
								JOINT newVegas:LeftHandRing1
								{
									OFFSET 17.732719 0.121887 -4.201567
									CHANNELS 3 Xrotation Yrotation Zrotation
									JOINT newVegas:LeftHandRing2
									{
										OFFSET 2.733170 0.000000 0.000000
										CHANNELS 3 Xrotation Yrotation Zrotation
										JOINT newVegas:LeftHandRing3
										{
											OFFSET 3.178268 0.000000 0.000000
											CHANNELS 3 Xrotation Yrotation Zrotation
											End Site
											{
												OFFSET 0.119102 3.170624 0.185394
											}
										}
									}
								}
								JOINT newVegas:LeftHandPinky1
								{
									OFFSET 15.989624 -0.606689 -7.535461
									CHANNELS 3 Xrotation Yrotation Zrotation
									JOINT newVegas:LeftHandPinky2
									{
										OFFSET 2.538986 0.000000 0.000000
										CHANNELS 3 Xrotation Yrotation Zrotation
										JOINT newVegas:LeftHandPinky3
										{
											OFFSET 2.593102 0.000000 0.000000
											CHANNELS 3 Xrotation Yrotation Zrotation
											End Site
											{
												OFFSET -0.150902 2.584198 0.152708
											}
										}
									}
								}
							}
							JOINT newVegas:Left_Sleeve
							{
								OFFSET 0.267448 -0.649796 0.577675
								CHANNELS 3 Xrotation Yrotation Zrotation
								End Site
								{
									OFFSET 0.000000 15.991241 0.000000
								}
							}
							JOINT newVegas:Left_CapeC
							{
								OFFSET 15.715958 -8.608795 -6.935905
								CHANNELS 3 Xrotation Yrotation Zrotation
								JOINT newVegas:Left_CapeC1
								{
									OFFSET 0.000000 -8.688499 0.000000
									CHANNELS 3 Xrotation Yrotation Zrotation
									End Site
									{
										OFFSET 0.000000 8.688499 0.000000
									}
								}
							}
						}
						JOINT newVegas:Left_CapeB
						{
							OFFSET 26.118385 -8.608795 -7.079235
							CHANNELS 3 Xrotation Yrotation Zrotation
							JOINT newVegas:Left_CapeB1
							{
								OFFSET 0.000000 -8.688499 0.000000
								CHANNELS 3 Xrotation Yrotation Zrotation
								End Site
								{
									OFFSET 0.000000 8.688499 0.000000
								}
							}
						}
						JOINT newVegas:Left_CapeA
						{
							OFFSET 5.115639 -8.608795 -10.395809
							CHANNELS 3 Xrotation Yrotation Zrotation
							JOINT newVegas:Left_CapeA1
							{
								OFFSET 0.000000 -8.688499 0.000000
								CHANNELS 3 Xrotation Yrotation Zrotation
								End Site
								{
									OFFSET 0.000000 8.688499 0.000000
								}
							}
						}
					}
				}
				JOINT newVegas:RightShoulder
				{
					OFFSET -15.263000 10.923401 -0.547700
					CHANNELS 3 Xrotation Yrotation Zrotation
					JOINT newVegas:RightArm
					{
						OFFSET -25.438599 -2.830597 -13.032500
						CHANNELS 3 Xrotation Yrotation Zrotation
						JOINT newVegas:RightForeArm
						{
							OFFSET -29.960503 0.000000 0.000000
							CHANNELS 3 Xrotation Yrotation Zrotation
							JOINT newVegas:RightHand
							{
								OFFSET -27.849251 0.000000 0.000000
								CHANNELS 3 Xrotation Yrotation Zrotation
								JOINT newVegas:RightHandThumb1
								{
									OFFSET -4.487587 -3.305161 6.305391
									CHANNELS 3 Xrotation Yrotation Zrotation
									JOINT newVegas:RightHandThumb2
									{
										OFFSET -5.480453 -3.164139 3.164143
										CHANNELS 3 Xrotation Yrotation Zrotation
										JOINT newVegas:RightHandThumb3
										{
											OFFSET -5.159721 -2.978973 2.978967
											CHANNELS 3 Xrotation Yrotation Zrotation
											End Site
											{
												OFFSET -2.494507 5.926697 1.738678
											}
										}
									}
								}
								JOINT newVegas:RightHandIndex1
								{
									OFFSET -18.578728 -0.527832 5.208049
									CHANNELS 3 Xrotation Yrotation Zrotation
									JOINT newVegas:RightHandIndex2
									{
										OFFSET -3.192009 0.000000 0.000000
										CHANNELS 3 Xrotation Yrotation Zrotation
										JOINT newVegas:RightHandIndex3
										{
											OFFSET -3.835129 0.000000 0.000000
											CHANNELS 3 Xrotation Yrotation Zrotation
											End Site
											{
												OFFSET 0.034599 3.816971 0.371180
											}
										}
									}
								}
								JOINT newVegas:RightHandMiddle1
								{
									OFFSET -18.476105 0.000000 0.000000
									CHANNELS 3 Xrotation Yrotation Zrotation
									JOINT newVegas:RightHandMiddle2
									{
										OFFSET -3.324875 0.000000 0.000000
										CHANNELS 3 Xrotation Yrotation Zrotation
										JOINT newVegas:RightHandMiddle3
										{
											OFFSET -4.596550 0.000000 0.000000
											CHANNELS 3 Xrotation Yrotation Zrotation
											End Site
											{
												OFFSET -0.057701 4.578827 0.399218
											}
										}
									}
								}
								JOINT newVegas:RightHandRing1
								{
									OFFSET -17.732719 0.121887 -4.201567
									CHANNELS 3 Xrotation Yrotation Zrotation
									JOINT newVegas:RightHandRing2
									{
										OFFSET -2.733170 0.000000 0.000000
										CHANNELS 3 Xrotation Yrotation Zrotation
										JOINT newVegas:RightHandRing3
										{
											OFFSET -3.178268 0.000000 0.000000
											CHANNELS 3 Xrotation Yrotation Zrotation
											End Site
											{
												OFFSET -0.119102 3.170624 0.185394
											}
										}
									}
								}
								JOINT newVegas:RightHandPinky1
								{
									OFFSET -15.989624 -0.606689 -7.535461
									CHANNELS 3 Xrotation Yrotation Zrotation
									JOINT newVegas:RightHandPinky2
									{
										OFFSET -2.538986 0.000000 0.000000
										CHANNELS 3 Xrotation Yrotation Zrotation
										JOINT newVegas:RightHandPinky3
										{
											OFFSET -2.593102 0.000000 0.000000
											CHANNELS 3 Xrotation Yrotation Zrotation
											End Site
											{
												OFFSET 0.150902 2.584198 0.152708
											}
										}
									}
								}
							}
							JOINT newVegas:Right_CapeC
							{
								OFFSET -15.715958 -8.608795 -6.935905
								CHANNELS 3 Xrotation Yrotation Zrotation
								JOINT newVegas:Right_CapeC1
								{
									OFFSET 0.000000 -8.688499 0.000000
									CHANNELS 3 Xrotation Yrotation Zrotation
									End Site
									{
										OFFSET 0.000000 8.688499 0.000000
									}
								}
							}
							JOINT newVegas:Right_Sleeve
							{
								OFFSET -0.267448 -0.649994 0.577675
								CHANNELS 3 Xrotation Yrotation Zrotation
								End Site
								{
									OFFSET 0.000000 15.991302 0.000000
								}
							}
						}
						JOINT newVegas:Right_CapeA
						{
							OFFSET -5.115540 -8.608795 -10.395824
							CHANNELS 3 Xrotation Yrotation Zrotation
							JOINT newVegas:Right_CapeA1
							{
								OFFSET 0.000000 -8.688499 0.000000
								CHANNELS 3 Xrotation Yrotation Zrotation
								End Site
								{
									OFFSET 0.000000 8.688499 0.000000
								}
							}
						}
						JOINT newVegas:Right_CapeB
						{
							OFFSET -26.118187 -8.608795 -7.079266
							CHANNELS 3 Xrotation Yrotation Zrotation
							JOINT newVegas:Right_CapeB1
							{
								OFFSET 0.000000 -8.688499 0.000000
								CHANNELS 3 Xrotation Yrotation Zrotation
								End Site
								{
									OFFSET 0.000000 8.688499 0.000000
								}
							}
						}
					}
				}
				JOINT newVegas:Left_Collar
				{
					OFFSET 18.625099 8.655502 8.828100
					CHANNELS 3 Xrotation Yrotation Zrotation
					JOINT newVegas:Left_Collar1
					{
						OFFSET 14.783401 10.540405 -1.259500
						CHANNELS 3 Xrotation Yrotation Zrotation
						End Site
						{
							OFFSET 0.000000 18.199875 0.000000
						}
					}
				}
				JOINT newVegas:Collar_Back
				{
					OFFSET 0.000000 15.630707 -20.132601
					CHANNELS 3 Xrotation Yrotation Zrotation
					End Site
					{
						OFFSET 0.000000 22.523010 0.000000
					}
				}
				JOINT newVegas:Left_Peck
				{
					OFFSET 17.239599 -5.132599 25.482599
					CHANNELS 3 Xrotation Yrotation Zrotation
					End Site
					{
						OFFSET 0.000000 22.523010 0.000000
					}
				}
				JOINT newVegas:Right_Peck
				{
					OFFSET -17.239599 -5.132202 25.482599
					CHANNELS 3 Xrotation Yrotation Zrotation
					End Site
					{
						OFFSET 0.000000 22.523010 0.000000
					}
				}
				JOINT newVegas:Right_Collar
				{
					OFFSET -18.625099 8.655792 8.828100
					CHANNELS 3 Xrotation Yrotation Zrotation
					JOINT newVegas:Right_Collar1
					{
						OFFSET -14.783401 10.539993 -1.259500
						CHANNELS 3 Xrotation Yrotation Zrotation
						End Site
						{
							OFFSET 0.000000 18.199631 0.000000
						}
					}
				}
			}
		}
		JOINT newVegas:Belly
		{
			OFFSET 0.000000 -6.540398 9.014299
			CHANNELS 3 Xrotation Yrotation Zrotation
			End Site
			{
				OFFSET 0.000000 11.566666 0.000000
			}
		}
	}
	JOINT newVegas:ElvisFacialAnim_Joint
	{
		OFFSET 1.000000 -95.330101 -8.825800
		CHANNELS 3 Xrotation Yrotation Zrotation
		End Site
		{
			OFFSET 0.000000 35.315800 0.000000
		}
	}
}
MOTION
Frames: 4
Frame Time: 0.033333
-0.183066 82.835983 -222.721329 9.489643 16.100709 -9.765922 0.000000 -0.000001 -0.000000 -66.037991 0.054875 4.091205 42.575472 7.048920 -1.840911 -19.544089 13.323885 -16.510509 -0.000003 0.000002 0.000001 0.000001 0.000001 0.000001 -35.426931 -10.008214 7.531391 57.292040 -8.146362 4.936179 -30.940429 -4.423721 -4.322338 0.000000 -0.000000 -0.000000 -0.000000 -0.000000 -0.000001 19.615219 0.510752 5.222275 9.422691 -0.330020 -2.751368 9.415581 -0.920027 -2.551962 -0.797008 -0.420987 -0.637821 -0.796969 -0.420987 -0.637819 0.000001 0.000000 -0.000001 -0.796997 -0.421005 -0.637813 -0.797026 -0.420955 -0.637823 0.000001 -0.000000 -0.000001 0.000001 0.000000 -0.000001 0.311256 -18.067920 -14.207595 -68.757110 -59.003887 -72.241278 -0.000014 -45.720173 -0.000010 40.147483 -14.878676 19.248885 -6.953939 -16.452211 14.533398 23.948851 28.494694 -11.531297 0.000002 -0.000000 -0.000003 -3.978979 1.108386 -51.035867 1.689797 4.116877 -44.617671 -0.000002 0.000001 0.000000 0.336018 5.341642 -50.425719 1.204242 3.559450 -37.373617 -0.000001 0.000001 0.000001 0.204926 5.520728 -55.230313 2.215613 4.587652 -51.538132 0.000003 -0.000002 0.000000 -1.224171 4.069012 -45.358614 0.855747 3.050455 -31.334271 0.000001 0.000000 -0.000002 -0.000001 -0.000000 0.000002 -0.000001 -0.000000 0.000002 -0.000001 -0.000001 0.000002 -0.000002 0.000000 0.000000 -0.000002 -0.000001 0.000000 -0.000002 0.000000 0.000000 -0.000002 -0.000001 -0.000001 -0.434413 15.429940 19.833116 -9.984412 22.747614 43.387684 0.000004 9.260119 0.000005 18.372516 6.171097 22.188168 -7.784725 20.195876 -16.286613 41.371303 -38.865668 32.565495 -0.000000 -0.000001 0.000001 -4.539751 3.468904 33.920273 3.484210 -4.507364 75.396744 -0.000000 0.000000 0.000004 -3.946759 -1.065079 49.916580 2.734182 -4.242405 65.588674 -0.000000 -0.000001 0.000003 -0.366320 -4.391804 54.585356 1.657248 -3.563869 49.866463 0.000001 0.000004 0.000005 -0.388574 -6.897820 48.203322 1.769488 -3.655369 51.649358 0.000000 0.000003 -0.000000 0.000002 -0.000000 -0.000000 0.000002 -0.000000 -0.000001 0.000002 -0.000001 -0.000000 0.000001 0.000001 0.000001 0.000001 0.000002 0.000000 0.000001 0.000001 0.000001 0.000001 0.000002 0.000000 0.000003 -0.000001 -0.000000 0.000003 -0.000001 -0.000000 0.000003 -0.000001 -0.000000 0.000003 -0.000001 -0.000000 0.000003 -0.000001 -0.000000 0.000003 -0.000001 -0.000000 0.000003 -0.000001 -0.000000 -0.000002 0.000001 -0.000001 0.000000 -0.000001 -0.000000 
-0.007332 85.718529 -232.356888 9.532604 14.613864 -9.186135 0.000001 -0.000001 0.000001 -63.824990 1.172824 4.244231 39.393218 6.218070 -2.009233 -13.201255 16.918411 -11.973241 -0.000002 0.000000 -0.000002 0.000001 -0.000002 0.000002 -41.687438 -6.680842 5.501881 48.112805 -8.528175 4.862138 -15.775101 -5.805066 -4.011906 -0.000000 0.000000 0.000000 0.000001 -0.000000 -0.000000 22.299157 1.337631 4.070789 7.223085 -0.493850 -1.379668 7.210327 -0.978924 -1.163279 -0.996635 -0.433630 -0.689039 -0.996668 -0.433633 -0.689043 -0.000000 0.000000 -0.000000 -0.996641 -0.433634 -0.689033 -0.996547 -0.433639 -0.689033 0.000000 0.000001 -0.000000 -0.000000 0.000000 -0.000001 0.372376 -18.372031 -11.310482 -77.849963 -54.084105 -79.191515 -0.000005 -38.545169 -0.000003 38.056352 -20.233961 21.739963 -7.096587 -16.715402 14.786458 23.948853 28.494682 -11.531299 0.000002 -0.000003 -0.000001 -4.238224 1.287209 -51.017118 1.557739 3.978945 -42.747033 -0.000001 0.000001 -0.000001 0.313022 5.323314 -50.437443 1.134199 3.466020 -36.230537 0.000000 -0.000001 -0.000000 0.177657 5.493603 -55.097630 2.134877 4.522557 -50.521407 -0.000002 0.000003 0.000002 -1.256514 3.939738 -44.458989 0.777940 2.918988 -29.839993 0.000000 -0.000003 0.000001 0.000000 -0.000000 -0.000001 0.000000 -0.000000 -0.000001 -0.000000 -0.000000 -0.000001 -0.000001 -0.000001 0.000000 -0.000001 -0.000002 0.000000 -0.000001 -0.000001 0.000000 -0.000001 -0.000002 0.000002 -0.462609 16.926942 18.477871 -9.815938 29.603860 38.124733 0.000005 9.887245 -0.000002 14.109807 11.030392 8.345753 -7.730410 19.721430 -15.729692 42.255344 -39.566350 33.046678 0.000000 0.000000 -0.000002 -3.621778 4.082381 27.931922 3.025714 -4.362660 69.472914 -0.000000 0.000001 0.000000 -3.991395 -0.139594 45.019846 2.229333 -3.975442 58.551687 0.000001 0.000002 0.000001 -0.323210 -4.099209 49.270755 1.300485 -3.230127 43.851297 -0.000000 0.000001 -0.000000 -0.318747 -5.914602 42.769951 1.438136 -3.367342 46.243222 0.000001 -0.000000 -0.000000 0.000000 -0.000000 -0.000000 0.000000 -0.000001 0.000000 0.000000 -0.000001 -0.000000 0.000001 0.000000 -0.000001 0.000002 0.000000 -0.000001 0.000001 0.000000 -0.000001 0.000002 -0.000000 -0.000001 -0.000003 0.000001 -0.000000 -0.000003 0.000001 -0.000000 -0.000003 0.000001 -0.000000 -0.000003 0.000001 -0.000000 -0.000003 0.000001 -0.000000 -0.000003 0.000001 -0.000000 -0.000003 0.000001 -0.000000 -0.000000 -0.000001 0.000000 0.000001 -0.000001 0.000001 
0.579559 88.335999 -241.205902 8.771194 12.126166 -8.672144 -0.000001 -0.000001 0.000001 -62.787907 0.863736 7.053885 39.705898 7.719240 -2.001581 0.208544 3.571536 -13.313345 -0.000000 0.000001 -0.000001 0.000001 -0.000001 -0.000000 -40.777677 -4.195900 4.213825 30.307301 -9.892508 4.695382 1.898504 -4.363712 -4.136241 0.000000 -0.000000 -0.000000 0.000000 0.000000 0.000001 26.900104 0.596695 2.929563 5.199483 -0.629831 0.018932 5.182878 -0.995059 0.199919 -1.070165 -0.333902 -0.700481 -1.070179 -0.333906 -0.700479 0.000000 0.000001 -0.000001 -1.070166 -0.333895 -0.700482 -1.070134 -0.333921 -0.700478 -0.000000 -0.000000 -0.000000 0.000000 0.000001 -0.000000 0.661037 -15.609274 -9.000249 -86.747658 -48.949725 -84.495970 -0.000015 -30.539801 -0.000025 35.572575 -26.159968 23.541172 -7.187889 -16.883288 14.947857 23.948853 28.494689 -11.531296 0.000000 -0.000003 -0.000001 -4.406538 1.403198 -51.004769 1.473924 3.886504 -41.524941 0.000001 -0.000002 -0.000000 0.298200 5.311506 -50.445021 1.089749 3.404625 -35.488761 -0.000001 0.000001 -0.000001 0.160205 5.476142 -55.012451 2.083395 4.479785 -49.865469 -0.000000 0.000001 0.000002 -1.275984 3.856808 -43.884082 0.730018 2.833915 -28.885020 -0.000000 -0.000005 0.000002 0.000003 -0.000002 -0.000001 0.000003 -0.000002 -0.000001 0.000003 -0.000002 -0.000001 -0.000000 -0.000003 -0.000000 -0.000000 -0.000003 -0.000001 -0.000000 -0.000003 -0.000000 -0.000002 -0.000003 0.000000 -0.680725 20.185876 18.351118 -9.542622 36.950651 29.618552 -0.000007 11.296220 -0.000005 13.036208 17.014874 -3.856487 -7.675254 19.242373 -15.174061 43.163777 -40.258354 33.557061 0.000000 -0.000004 0.000001 -2.678555 4.571011 21.925739 2.584757 -4.171555 63.551775 0.000001 -0.000001 -0.000001 -3.940132 0.816970 40.053322 1.761234 -3.648840 51.519765 0.000002 0.000000 0.000001 -0.268810 -3.819525 43.712924 0.974486 -2.852764 37.713132 -0.000000 -0.000003 0.000001 -0.094979 -4.924714 36.919846 1.122137 -3.033859 40.588044 -0.000002 -0.000000 -0.000002 -0.000001 0.000000 -0.000000 -0.000001 -0.000000 -0.000000 -0.000001 0.000000 -0.000000 -0.000003 0.000002 -0.000000 -0.000003 0.000002 0.000001 -0.000003 0.000002 -0.000000 -0.000003 0.000002 0.000001 0.000002 0.000000 -0.000000 0.000002 0.000000 -0.000000 0.000002 0.000000 -0.000000 0.000002 0.000000 -0.000000 0.000002 0.000000 -0.000000 0.000002 0.000000 -0.000000 0.000002 0.000000 -0.000000 -0.000000 0.000000 0.000000 -0.000001 -0.000001 0.000001 
1.381742 88.508430 -248.311523 7.312077 9.208459 -8.044832 -0.000000 0.000001 -0.000001 -65.703968 -0.534968 9.347693 54.242900 5.670666 -1.828013 5.573841 0.171368 -13.150893 0.000000 -0.000001 -0.000001 -0.000001 -0.000000 0.000001 -38.187929 -2.969095 3.403067 14.025065 -9.172002 4.729287 16.918788 -4.070958 -4.866652 -0.000000 0.000000 -0.000000 0.000000 -0.000000 -0.000000 29.344733 -0.666848 1.604426 4.268905 -0.612176 1.441925 4.253016 -0.776217 1.509879 -0.976775 -0.171828 -0.679789 -0.976773 -0.171827 -0.679786 0.000001 0.000000 -0.000000 -0.976743 -0.171822 -0.679793 -0.976726 -0.171821 -0.679793 0.000001 -0.000001 0.000000 0.000001 0.000000 -0.000000 0.758349 -12.527710 -7.549773 -91.598670 -43.953032 -86.934819 0.000007 -26.749966 0.000011 32.816286 -31.968034 24.563560 -7.220057 -16.942329 15.004589 23.948853 28.494690 -11.531297 0.000005 -0.000003 -0.000001 -4.466515 1.444485 -51.000322 1.444370 3.852978 -41.087303 -0.000002 -0.000000 -0.000002 0.292936 5.307314 -50.447716 1.074115 3.382614 -35.224549 -0.000002 0.000001 -0.000001 0.154061 5.469966 -54.982374 2.065256 4.464487 -49.632891 0.000004 -0.000001 0.000001 -1.282596 3.827565 -43.681782 0.713487 2.803784 -28.548992 0.000000 -0.000002 -0.000001 0.000001 0.000000 -0.000001 0.000001 0.000000 -0.000001 0.000001 -0.000001 -0.000001 -0.000002 0.000000 0.000002 -0.000002 -0.000002 0.000002 -0.000002 0.000000 0.000002 -0.000002 -0.000001 0.000002 -0.931195 22.478113 18.619797 -10.541489 42.923706 22.908999 0.000002 13.138352 -0.000012 13.515646 19.851629 -9.172286 -7.620212 18.767048 -14.629251 44.080955 -40.929335 34.087739 0.000002 0.000001 0.000001 -1.831666 4.899273 16.547721 2.209117 -3.963058 58.259786 0.000000 -0.000001 0.000003 -3.801903 1.735356 35.342845 1.374301 -3.305102 45.146249 0.000000 0.000001 -0.000005 -0.208390 -3.562290 38.075122 0.699162 -2.456160 31.773022 0.000001 0.000004 0.000001 0.293132 -3.973845 30.700283 0.836352 -2.664766 34.843636 -0.000000 0.000000 -0.000003 0.000002 0.000000 -0.000001 0.000000 0.000000 -0.000003 0.000002 0.000000 -0.000003 0.000003 -0.000001 -0.000001 0.000003 -0.000001 -0.000000 0.000003 -0.000001 -0.000001 0.000003 -0.000001 -0.000000 0.000001 0.000000 0.000001 0.000001 0.000000 0.000001 0.000001 0.000000 0.000001 0.000001 0.000000 0.000001 0.000001 0.000000 0.000001 0.000001 0.000000 0.000001 0.000001 0.000000 0.000001 -0.000000 -0.000000 0.000001 -0.000000 0.000001 -0.000001 
